# xmcd
#
# Track frame offsets: 
#        182
#        22637
#        46710
#        65315
#        88735
#        109680
#        133147
#        151427
#        177920
#        202615
#        225225
#        248547
#
# Disc length: 3641 seconds
#
# Revision: 6
# Processed by: cddbd v1.5.2PL0 Copyright (c) Steve Scherf et al.
# Submitted via: ExactAudioCopy v1.0b3
#
DISCID=810e370c
DTITLE=Mana - Sueños Liquidos
DYEAR=1997
DGENRE=Alt. Rock
TTITLE0=Hechicera
TTITLE1=Un Lobo Por Tu Amor
TTITLE2=Como Dueles En Los Labios
TTITLE3=Chaman
TTITLE4=Tu Tienes Lo Que Quiero
TTITLE5=Clavado En Un Bar
TTITLE6=Robame El Alma
TTITLE7=En El Muelle De San Blas
TTITLE8=La Sirena
TTITLE9=Me Voy A Convertir En Un Ave
TTITLE10=Como Te Extraño Corazon
TTITLE11=Amame Hasta Que Me Muera
EXTD=
EXTT0=
EXTT1=
EXTT2=
EXTT3=
EXTT4=
EXTT5=
EXTT6=
EXTT7=
EXTT8=
EXTT9=
EXTT10=
EXTT11=
PLAYORDER=
